<svg xmlns="http://www.w3.org/2000/svg" viewBox="0 0 24 24" fill="#111111">
  <path d="M20.317 4.37A19.79 19.79 0 0 0 15.432 2.855a.074.074 0 0 0-.079.037c-.211.375-.445.865-.608 1.249a18.27 18.27 0 0 0-5.487 0 12.58 12.58 0 0 0-.617-1.25.077.077 0 0 0-.079-.036A19.74 19.74 0 0 0 3.642 4.37a.07.07 0 0 0-.032.028C.534 9.047-.32 13.58.099 18.058a.082.082 0 0 0 .031.056 19.9 19.9 0 0 0 5.994 3.03.078.078 0 0 0 .084-.028c.462-.63.874-1.295 1.227-1.995a.076.076 0 0 0-.042-.106 13.1 13.1 0 0 1-1.873-.892.077.077 0 0 1-.007-.128c.125-.093.25-.19.372-.293a.074.074 0 0 1 .078-.01c3.928 1.793 8.18 1.793 12.061 0a.074.074 0 0 1 .078.01c.122.103.247.2.373.293a.077.077 0 0 1-.006.128 12.3 12.3 0 0 1-1.873.891.076.076 0 0 0-.041.107c.36.7.772 1.365 1.226 1.994a.076.076 0 0 0 .084.029 19.84 19.84 0 0 0 6.002-3.03.077.077 0 0 0 .031-.055c.501-5.177-.838-9.66-3.549-13.66a.061.061 0 0 0-.031-.028ZM8.02 15.331c-1.183 0-2.157-1.086-2.157-2.42s.956-2.419 2.157-2.419c1.211 0 2.175 1.095 2.157 2.419 0 1.334-.956 2.42-2.157 2.42Zm7.974 0c-1.182 0-2.157-1.086-2.157-2.42s.956-2.419 2.157-2.419c1.211 0 2.175 1.095 2.157 2.419 0 1.334-.946 2.42-2.157 2.42Z"/>
</svg>
